<svg width="123.99999999999999" height="32" xmlns="http://www.w3.org/2000/svg" xmlns:svg="http://www.w3.org/2000/svg">
 <!-- Generator: Sketch 47.1 (45422) - http://www.bohemiancoding.com/sketch -->
 <title>nav_logo_white</title>
 <desc>Created with Sketch.</desc>
 <g>
  <title>Layer 1</title>
  <g id="Symbols" fill="none" fill-rule="evenodd">
   <g id="Header">
    <g id="Global-Nav">
     <g id="Nav-Copy-2">
      <g id="Logo-[Green-+-White]">
       <g id="Logo">
        <g id="Q" fill-rule="nonzero" fill="#00A971"/>
        <g id="Logotype" fill-rule="nonzero" fill="#111"/>
       </g>
      </g>
     </g>
    </g>
   </g>
  </g>
  <text fill="#ffffff" stroke-width="0" x="51.170896" y="27.535168" id="svg_2" font-size="24" font-family="Fantasy" text-anchor="middle" xml:space="preserve" font-weight="normal" transform="matrix(0.7550962664712443,0,0,0.8286509382789295,37.98918174325294,1.0039924398154823) " stroke="#000000">DawnCloud</text>
  <g id="svg_13" stroke="null">
   <path fill="#ffa87c" stroke-width="0" stroke-dasharray="null" stroke-linejoin="null" stroke-linecap="null" d="m28.275273,13.464327l-4.479369,2.067434l-0.299539,-3.292498l4.778909,1.225075l-0.000001,-0.000011zm-4.098676,-7.805932l-1.704889,4.629667l-2.539867,-2.116339l4.244755,-2.513327l0.000001,-0.000001zm-8.416251,-2.621734l2.067359,4.479387l-3.292498,0.299539l1.22515,-4.778926l-0.000011,0.000001l0,-0.000001zm-7.806086,4.097579l4.629742,1.70596l-2.1163,2.539939l-2.513442,-4.245899zm-2.621637,8.41732l4.479387,-2.067359l0.299539,3.292498l-4.778926,-1.22515l0.000001,0.000011l-0.000001,0zm4.097484,7.805039l1.706066,-4.628696l2.53991,2.116336l-4.245976,2.51236zm8.417467,2.622658l-2.067434,-4.479369l3.292498,-0.299539l-1.225075,4.778909l0.000011,-0.000001zm7.80487,-4.098503l-4.628522,-1.704993l2.116257,-2.539935l2.512265,4.244928zm-14.584175,-6.851l0,0c-0.288186,-3.167712 2.046159,-5.969281 5.213871,-6.257467c3.167712,-0.288186 5.969279,2.046137 6.257465,5.213849c0.288186,3.167712 -2.046137,5.969279 -5.213849,6.257465c-3.167712,0.288186 -5.9693,-2.046135 -6.257486,-5.213847l-0.000001,0z" id="svg_25" stroke="#ffffff"/>
   <path fill="#9cd0d1" stroke-width="0" stroke-dasharray="null" stroke-linejoin="null" stroke-linecap="null" d="m23.107952,15.78387c0.019864,-0.203816 0.03136,-0.409714 0.03136,-0.617714c0,-3.608021 -2.924461,-6.532493 -6.532493,-6.532493c-2.80009,0 -5.182097,1.76534 -6.111273,4.242462c-0.615622,-0.675203 -1.493585,-1.106862 -2.479214,-1.106862c-1.858362,0 -3.364499,1.506126 -3.364499,3.364499c0,0.219496 0.024037,0.433762 0.064801,0.640705c-2.479214,0.408668 -4.376247,2.546107 -4.376247,5.140288c0,2.886836 2.340198,5.225988 5.225988,5.225988l16.592527,0c2.886836,0 5.225988,-2.339152 5.225988,-5.225988c0.001046,-2.561787 -1.844774,-4.683535 -4.276948,-5.130885l0.000011,0l-0.000001,0z" id="svg_28" stroke="#ffffff"/>
   <path fill="#ffffff" stroke-width="0" stroke-dasharray="null" stroke-linejoin="null" stroke-linecap="null" d="m7.998215,23.353682c0.276928,-0.56664 1.284209,-0.315294 1.849662,-0.529911c1.920767,-0.28059 3.876337,-0.729807 5.503077,-1.841601c1.69832,-1.118645 3.132253,-2.797982 3.61865,-4.804941c0.336564,-1.228721 -0.329927,-2.659614 -1.560834,-3.07426c-0.816222,-0.261513 -1.785482,-0.508305 -2.566978,-0.012923c-0.653964,0.131322 -0.794256,1.104917 0.00102,1.089937c0.97046,0.07914 1.695752,1.210811 1.230357,2.100712c-0.409557,0.858965 -1.568191,1.049049 -2.339533,0.581213c-0.897729,-0.440344 -1.442646,-1.595167 -0.97261,-2.529724c0.664666,-1.550672 2.574367,-2.163591 4.135186,-1.808872c1.446991,0.209748 2.835566,1.067727 3.507166,2.391863c0.5319,0.918001 0.762605,2.034428 0.430257,3.063061c-0.320582,1.390673 -1.302935,2.514326 -2.454079,3.307119c-1.511842,1.086655 -3.322337,1.702339 -5.168329,1.882344c-1.736079,0.212286 -3.48629,0.31683 -5.23542,0.296448c0.007468,-0.036821 0.014938,-0.073643 0.022406,-0.110464l-0.000001,0.000001l0.000003,-0.000002zm12.522287,-1.630657c-0.536616,-0.637685 0.217164,-1.825805 1.027959,-1.47294c0.663081,0.146088 0.922157,1.03603 0.462304,1.524558c-0.374162,0.48401 -1.133713,0.408139 -1.490263,-0.051618zm1.64863,-3.447834c-0.536617,-0.637684 0.217164,-1.825805 1.027958,-1.47294c0.663081,0.146088 0.922156,1.03603 0.462304,1.524558c-0.378054,0.484397 -1.129907,0.408748 -1.490262,-0.051618z" id="svg_1" stroke="#ffffff"/>
   <path fill="none" stroke-width="0" stroke-dasharray="null" stroke-linejoin="null" stroke-linecap="null" id="svg_4" d="m-0.371475,0.643241c17.508559,19.207747 16.355137,17.867702 15.026147,16.376501c-1.44176,-1.617734 -2.973727,-3.301609 -4.547346,-5.014144c-1.566326,-1.704597 -3.092239,-3.350076 -4.540732,-4.888476c-2.462594,-2.615445 -3.419518,-3.602095 -4.191952,-4.376293c-0.596029,-0.59739 -1.044465,-1.034353 -1.383118,-1.311184c-0.217871,-0.178097 -0.376932,-0.290315 -0.440302,-0.247509c-0.108211,0.073095 -0.052486,0.205452 -0.057135,0.29243c-0.004834,0.090432 -0.007635,0.184012 -0.00948,0.280219c-0.001887,0.098397 -0.002585,0.198571 -0.002866,0.300062c-0.000569,0.205185 0.020235,0.515022 -0.041939,1.439826c-0.069242,1.029929 -0.410766,2.170647 0.304741,2.844572c0.666558,0.627821 1.858651,0.248002 2.747761,0.195779c0.972989,-0.057149 1.96052,-0.076816 2.890407,-0.174221c0.957856,-0.100335 1.990011,-0.384666 2.989079,-0.47034c0.663257,-0.056877 0.648286,1.029312 0.676064,1.779843c0.042671,1.152978 0.156719,2.110495 0.258882,3.045055c0.088476,0.809343 0.227378,2.032176 0.352755,3.035256c0.085386,0.683132 0.271848,2.009063 0.441164,2.907579c0.151064,0.801662 0.393826,1.889245 0.577709,2.691027c0.231309,1.008571 0.286834,2.195409 0.914417,2.95373c0.602982,0.728594 1.57112,1.024736 2.531748,1.186652c0.941753,0.158734 1.976188,0.133993 2.997802,-0.079615c0.914395,-0.191188 1.803357,-0.550026 2.80212,-0.929876c0.75982,-0.288974 1.750062,-0.77797 2.49848,-1.355752c0.783292,-0.604705 1.399987,-1.419092 1.684061,-2.350398c0.256809,-0.841923 0.533422,-1.891759 0.813883,-2.87632c0.21265,-0.746506 0.587483,-1.846401 0.833235,-2.557004l0.350403,-1.088444" stroke="#ffffff"/>
   <path fill="none" stroke-width="0" stroke-dasharray="null" stroke-linejoin="null" stroke-linecap="null" id="svg_5" d="m10.35814,17.987002c0.433986,0.962456 0.9471,1.737161 1.424932,2.608399c0.452451,0.82496 0.72464,1.792226 0.926764,2.759471c0.209161,1.00092 0.404048,1.96727 0.558724,2.876198c0.177181,1.041168 0.614861,1.979268 1.532131,2.044604c1.093431,0.077882 1.837283,-0.201809 2.706998,-0.328256c1.095738,-0.159309 1.991353,-0.217019 3.213397,-0.49856c0.817116,-0.188252 1.632675,-0.440445 2.659377,-0.779782c0.766948,-0.253487 1.625198,-0.587987 2.66119,-1.062061c0.808751,-0.370088 1.647708,-0.783454 2.462226,-1.217445c1.092302,-0.582002 1.911934,-1.056355 2.589339,-1.626026c0.867084,-0.729182 1.649399,-1.452721 1.973491,-2.473838c0.266588,-0.839947 -0.099399,-1.709782 -0.777775,-2.611975c-0.642347,-0.854279 -1.291435,-1.328932 -1.965283,-1.844292c-0.892656,-0.682707 -1.767351,-1.267241 -2.533096,-1.622647c-0.927574,-0.430514 -1.721728,-0.66802 -2.58792,-0.922086c-0.89098,-0.261337 -1.754344,-0.55618 -3.264743,-0.759597c-0.872309,-0.11748 -1.677412,-0.068198 -2.71758,0.292982c-0.876342,0.304294 -1.742176,0.782311 -2.541179,1.359648c-0.815186,0.589029 -1.331157,1.10526 -1.884714,1.680311c-0.965401,1.002885 -1.655355,1.819411 -2.01952,2.254297c-0.760136,0.907757 -1.155711,1.374307 -2.245282,2.883768c-0.362989,0.502874 -1.03345,1.522528 -1.343994,2.027554c-0.594193,0.966315 -0.883074,1.419262 -1.522136,2.700335c-0.501061,1.004435 -1.631132,1.941639 -1.034746,2.819489c0.487261,0.717221 1.923516,-0.081125 2.672311,-0.360201c0.877196,-0.326931 1.866745,-0.763709 2.707562,-1.096651c0.910505,-0.360537 1.893177,-0.72871 2.585789,-0.987296c1.105399,-0.412699 1.893156,-0.707867 3.153968,-1.209653c0.451591,-0.179727 1.429337,-0.576736 1.970624,-0.788603c1.210638,-0.473862 1.893943,-0.733903 3.450992,-1.292208c0.876917,-0.314433 1.812369,-0.635916 2.786759,-0.969412c0.99711,-0.341273 2.002409,-0.680955 2.998414,-1.018358c0.97109,-0.328962 1.9031,-0.639157 3.572619,-1.221316c0.714325,-0.249085 1.345751,-0.476735 1.901785,-0.685225c0.491155,-0.184163 1.315138,-0.480639 2.458652,-1.029554c0.873905,-0.419496 2.368696,-1.015558 2.003646,-1.511945c-0.478961,-0.651285 -1.864461,0.299805 -2.672898,0.402532c-1.361704,0.17303 -2.175783,0.2274 -3.108944,0.298664c-0.523992,0.040017 -1.711586,0.126141 -2.384621,0.177554c-1.529339,0.116824 -2.394996,0.187404 -3.33392,0.267113c-1.016768,0.086319 -2.115333,0.184081 -3.299798,0.295653c-1.27523,0.120121 -2.645089,0.254354 -4.113339,0.408094c-3.251844,0.340498 -5.037298,0.545746 -6.909871,0.761166c-1.934734,0.222572 -3.905912,0.455277 -5.888795,0.6925c-1.969927,0.235673 -3.901489,0.469974 -5.76974,0.699115c-3.447422,0.422827 -4.981893,0.614834 -6.388188,0.790563c-1.287913,0.160937 -2.467138,0.309346 -3.547607,0.445572c-0.99157,0.125017 -1.903986,0.240655 -2.747296,0.346362c-1.518117,0.190294 -2.212012,0.275138 -2.87103,0.355301c-0.628978,0.076509 -1.2329,0.14913 -1.816464,0.22003c-0.56818,0.069032 -1.125856,0.136854 -1.677568,0.206803c-1.106145,0.140244 -1.667842,0.216353 -2.231957,0.293765c-0.560191,0.076874 -1.109694,0.15442 -1.642072,0.231275c-0.509028,0.073484 -0.988058,0.143883 -1.430419,0.211432c-0.750058,0.114535 -1.046236,0.163214 -1.291671,0.205186c-0.200137,0.034227 -0.359802,0.063334 -0.483934,0.088629c-0.094339,0.019223 -0.163394,0.036061 -0.212755,0.048945l-0.059772,0.018421l-0.019891,0.006639" stroke="#ffffff"/>
   <ellipse fill="none" stroke-width="0" stroke-dasharray="null" stroke-linejoin="null" stroke-linecap="null" cx="20.793793" cy="18.574927" id="svg_6" rx="2.057734" ry="3.674526" stroke="#ffffff"/>
   <ellipse fill="#7cba99" stroke-width="0" stroke-dasharray="null" stroke-linejoin="null" stroke-linecap="null" cx="21.251118" cy="21.118023" id="svg_9" rx="1.081258" ry="1.081258" stroke="#ffffff"/>
   <ellipse fill="#7cba99" stroke-width="0" stroke-dasharray="null" stroke-linejoin="null" stroke-linecap="null" cx="22.960203" cy="17.699853" id="svg_11" rx="1.081258" ry="1.081258" stroke="#ffffff"/>
  </g>
 </g>
</svg>