<svg xmlns="http://www.w3.org/2000/svg" width="20" height="20" viewBox="0 0 20 20">
    <g fill="none" fill-rule="evenodd">
        <path d="M0 0h20v20H0z"/>
        <path fill="#86DBA2" d="M13.965 1.003H1.432C.716 1.003 0 1.573 0 2.372v14.26C0 17.315.597 18 1.432 18h10.743c-.477-.456-.836-.913-1.074-1.483a4.547 4.547 0 0 1-.358-1.825c0-.685.119-1.255.358-1.825.238-.685.597-1.255.955-1.597.477-.457.954-.799 1.551-1.027a4.983 4.983 0 0 1 1.79-.342V2.37c0-.798-.596-1.368-1.432-1.368zM3.461 4.425h3.581c.358 0 .717.342.717.684 0 .343-.359.685-.717.685h-3.58c-.359 0-.717-.342-.717-.685 0-.342.358-.684.716-.684zm5.014 9.24H3.46c-.358 0-.716-.342-.716-.684 0-.343.358-.685.716-.685h5.014c.358 0 .716.342.716.685 0 .342-.358.684-.716.684zm3.461-3.993H3.461c-.358 0-.716-.228-.716-.684 0-.342.358-.684.716-.684h8.475c.358 0 .716.342.716.684 0 .456-.238.684-.716.684z"/>
        <path fill="#443D4E" d="M15.517 11.155c-1.91 0-3.461 1.483-3.461 3.309 0 1.825 1.551 3.308 3.461 3.308s3.462-1.483 3.462-3.308c.119-1.826-1.433-3.309-3.462-3.309zm2.268 2.966l-2.387 2.168c-.12.114-.24.114-.358.114-.12 0-.24 0-.358-.114l-1.313-1.255c-.24-.228-.24-.57 0-.684.238-.229.596-.229.716 0l.955.912 2.029-1.825c.238-.228.597-.228.716 0 .239.114.239.456 0 .684z"/>
    </g>
</svg>
