<svg xmlns="http://www.w3.org/2000/svg" width="40" height="40" viewBox="0 0 40 40">
    <g fill="none" fill-rule="evenodd">
        <path d="M0 0h40v40H0z"/>
        <path fill="#86DBA2" d="M20 38.278c-9.941 0-18-8.06-18-18 0-9.941 8.059-18 18-18s18 8.059 18 18c0 9.94-8.059 18-18 18z"/>
        <g fill="#443D4E" transform="translate(23 14)">
            <circle cx="8.087" cy="1.408" r="1" transform="rotate(157.5 8.087 1.408)"/>
            <circle cx="5.485" cy="14.485" r="1" transform="rotate(45 5.485 14.485)"/>
            <circle cx="8.087" cy="10.592" r="1" transform="rotate(22.5 8.087 10.592)"/>
            <circle cx="9" cy="6" r="1"/>
        </g>
        <path fill="#FFF" d="M26.689 13.111l-.335-.329a10.807 10.807 0 0 0-.815-.695 10.118 10.118 0 0 0-3.49-1.751 12.627 12.627 0 0 0-1.243-.26c-.216-.038-.44-.058-.667-.08-.113-.015-.228-.016-.344-.022l-.174-.009-.088-.004c-1.262.016-1.95.112-3.015.381-.987.294-1.958.75-2.875 1.34-.923.585-1.746 1.362-2.436 2.242a10.564 10.564 0 0 0-1.622 2.925c-.362 1.036-.54 2.19-.591 3.185.002.294-.013.637.004.885.023.249.017.482.055.741.06.517.156 1.019.273 1.504.239.971.612 1.854 1.019 2.644.847 1.571 1.933 2.671 2.734 3.382.412.344.752.604.992.769l.368.26-2.244.237s-1.171-.697-1.814-1.273a13.282 13.282 0 0 1-1.977-2.135 12.335 12.335 0 0 1-1.64-3.082 12.193 12.193 0 0 1-.516-1.858c-.074-.319-.11-.684-.162-1.032-.046-.351-.053-.618-.082-.935a14.51 14.51 0 0 1 .514-4.26 13.918 13.918 0 0 1 1.908-3.993c.849-1.227 1.894-2.334 3.095-3.208 1.192-.886 2.522-1.54 3.868-1.998 1.29-.428 2.964-.648 3.946-.676L19.548 6l.122.001.242.002c.16.003.32.001.48.014.317.018.63.037.936.077.614.063 1.2.186 1.757.323 2.23.58 3.899 1.599 4.96 2.402a15.11 15.11 0 0 1 1.53 1.368l-2.886 2.924z"/>
        <path fill="#443D4E" fill-rule="nonzero" d="M18.482 18.887L26.889 12l.864.86-6.914 8.297c-.55.704-1.493.782-2.2.234l-.157-.156a1.581 1.581 0 0 1-.079-2.192c0-.078.079-.078.079-.156z"/>
    </g>
</svg>
