<svg xmlns="http://www.w3.org/2000/svg" xmlns:xlink="http://www.w3.org/1999/xlink" width="64" height="64" viewBox="0 0 64 64">
    <defs>
        <path id="a" d="M6.999 45h51.99l4.297 5.057A3 3 0 0 1 61 55H5.242a3 3 0 0 1-2.343-4.874L6.999 45z"/>
    </defs>
    <g fill="none" fill-rule="evenodd">
        <path d="M0 0h64v64H0z"/>
        <path fill="#443D4E" d="M10 9h46a3 3 0 0 1 3 3v33H7V12a3 3 0 0 1 3-3z"/>
        <use fill="#6DC99F" xlink:href="#a"/>
        <use fill="#86DBA2" xlink:href="#a"/>
        <rect width="36" height="3" x="15" y="17" fill="#FFF" rx="1"/>
        <rect width="16" height="3" x="15" y="23" fill="#FFF" rx="1"/>
        <rect width="17" height="3" x="34" y="23" fill="#FFF" rx="1"/>
        <rect width="27" height="3" x="15" y="29" fill="#FFF" rx="1"/>
        <rect width="12" height="3" x="15" y="35" fill="#FFF" rx="1"/>
        <rect width="6" height="3" x="45" y="29" fill="#FFF" rx="1"/>
    </g>
</svg>
