<svg xmlns="http://www.w3.org/2000/svg" xmlns:xlink="http://www.w3.org/1999/xlink" width="64" height="64" viewBox="0 0 64 64">
    <defs>
        <path id="a" d="M54 3v30a3 3 0 0 1-3 3H3a3 3 0 0 1-3-3V3a3 3 0 0 1 3-3h48a3 3 0 0 1 3 3z"/>
    </defs>
    <g fill="none" fill-rule="evenodd">
        <path d="M0 0h64v64H0z"/>
        <g transform="translate(2 13)">
            <use fill="#6DC99F" xlink:href="#a"/>
            <use fill="#86DBA2" xlink:href="#a"/>
        </g>
        <path fill="#443D4E" d="M22.571 49H35.43L38 59H20zM18 59h22v2H18z"/>
        <g>
            <path fill="#443D4E" d="M64 22.583v-5.361l-3.13-.227a3.326 3.326 0 0 1-2.833-2.05v-.04a3.334 3.334 0 0 1 .555-3.459l2.05-2.348-3.81-3.819-2.349 2.05a3.334 3.334 0 0 1-3.459.556h-.039a3.263 3.263 0 0 1-2.05-2.786L48.677 2h-5.361l-.227 3.083a3.295 3.295 0 0 1-2.05 2.81 3.334 3.334 0 0 1-3.46-.556l-2.348-2.05-3.858 3.756 2.05 2.348a3.334 3.334 0 0 1 .556 3.46 3.326 3.326 0 0 1-2.849 2.144l-3.13.227v5.36l3.13.235a3.326 3.326 0 0 1 2.833 2.05v.04a3.334 3.334 0 0 1-.555 3.46l-2.05 2.347 3.787 3.788 2.348-2.05a3.334 3.334 0 0 1 3.46-.556h.038a3.397 3.397 0 0 1 2.05 2.887L43.317 38h5.36l.227-3.17a3.365 3.365 0 0 1 2.05-2.856h.04a3.334 3.334 0 0 1 3.46.548l2.347 2.042 3.788-3.795-2.05-2.348a3.334 3.334 0 0 1-.556-3.46v-.038a3.326 3.326 0 0 1 2.888-2.106l3.13-.234z"/>
            <path fill="#FFF" d="M46 26a6 6 0 1 0 0-12 6 6 0 0 0 0 12z"/>
        </g>
    </g>
</svg>
