<svg xmlns="http://www.w3.org/2000/svg" width="20" height="20" viewBox="0 0 20 20">
    <g fill="none" fill-rule="evenodd">
        <path d="M0 0h20v20H0z"/>
        <path fill="#86DBA2" d="M13.592 18.36c-.468 0-.91-.1-1.328-.301a3.448 3.448 0 0 1-1.094-.829 3.94 3.94 0 0 1-.735-1.233 4.191 4.191 0 0 1-.267-1.496c0-.528.089-1.026.267-1.497.178-.47.423-.879.735-1.224a3.512 3.512 0 0 1 1.094-.819c.418-.2.86-.301 1.328-.301.468 0 .91.1 1.328.301.418.201.78.474 1.086.82.306.344.548.752.727 1.223.178.47.267.97.267 1.497 0 .527-.09 1.026-.267 1.496-.179.47-.42.882-.727 1.233a3.353 3.353 0 0 1-1.086.829c-.417.2-.86.301-1.328.301zm1.687-4.48h-1.236v-1.3a.702.702 0 0 0-.15-.452.47.47 0 0 0-.384-.188.426.426 0 0 0-.368.188.76.76 0 0 0-.134.452v1.3h-1.085a.518.518 0 0 0-.401.188.658.658 0 0 0-.167.451c0 .176.055.308.167.396a.628.628 0 0 0 .4.132h1.086v1.336a.76.76 0 0 0 .134.452.426.426 0 0 0 .368.188.47.47 0 0 0 .384-.188c.1-.126.15-.276.15-.452v-1.336h1.236v.037c.156 0 .29-.05.401-.15a.53.53 0 0 0 .167-.415.657.657 0 0 0-.167-.451.518.518 0 0 0-.4-.189zm-4.126-4.688c-.044.2-.089.382-.134.546-.044.138-.1.279-.167.423-.066.144-.139.254-.217.33a.734.734 0 0 0-.209.282c-.038.1-.072.204-.1.31-.028.107-.058.217-.092.33-.033.113-.089.226-.167.339a5.01 5.01 0 0 0-.843 2.108c-.05.327-.064.65-.042.97.022.32.067.63.134.932.044.226.11.461.2.706.09.245.22.496.393.753.172.257.392.508.66.753.267.245.6.48 1.002.706-.268.063-.58.12-.936.17a21.345 21.345 0 0 1-2.622.15c-.29 0-.627-.013-1.011-.038-.384-.025-.78-.056-1.186-.094a35.772 35.772 0 0 1-1.203-.132c-.395-.05-.757-.103-1.086-.16a8.859 8.859 0 0 1-.835-.179c-.228-.062-.37-.119-.426-.169-.1-.1-.178-.38-.234-.838-.056-.458-.039-1.057.05-1.798.056-.414.203-.73.443-.95.24-.22.52-.392.844-.518.322-.126.66-.242 1.01-.348.35-.107.66-.254.927-.443.212-.15.373-.292.485-.423.111-.132.19-.267.234-.405a1.4 1.4 0 0 0 .066-.433c0-.15-.005-.314-.016-.49-.023-.263-.103-.47-.242-.62-.14-.151-.287-.302-.443-.453a.928.928 0 0 1-.234-.339 4.396 4.396 0 0 1-.167-.433 3.454 3.454 0 0 1-.134-.545.734.734 0 0 1-.217-.113 1.212 1.212 0 0 1-.184-.226 1.63 1.63 0 0 1-.183-.452 1.366 1.366 0 0 1-.059-.527c.017-.163.047-.301.092-.414.045-.139.106-.258.184-.358 0-.427.022-.854.067-1.28.044-.364.114-.753.208-1.168.095-.414.248-.784.46-1.11.2-.314.415-.571.643-.772a2.948 2.948 0 0 1 1.445-.706C7.556 2.022 7.79 2 8.013 2c.29 0 .568.038.835.113a3.513 3.513 0 0 1 1.353.725 2.6 2.6 0 0 1 .434.48c.256.364.443.765.56 1.205.117.439.203.853.259 1.242.056.452.078.904.067 1.356a.804.804 0 0 1 .167.226.906.906 0 0 1 .1.3c.022.126.022.283 0 .472a1.68 1.68 0 0 1-.134.564c-.066.138-.139.245-.217.32a.815.815 0 0 1-.284.189z"/>
        <path fill="#443D4E" d="M13.592 18.36c-.468 0-.91-.1-1.328-.301a3.448 3.448 0 0 1-1.094-.829 3.94 3.94 0 0 1-.735-1.233 4.191 4.191 0 0 1-.267-1.496c0-.528.089-1.026.267-1.497.178-.47.423-.879.735-1.224a3.512 3.512 0 0 1 1.094-.819c.418-.2.86-.301 1.328-.301.468 0 .91.1 1.328.301.418.201.78.474 1.086.82.306.344.548.752.727 1.223.178.47.267.97.267 1.497 0 .527-.09 1.026-.267 1.496-.179.47-.42.882-.727 1.233a3.353 3.353 0 0 1-1.086.829c-.417.2-.86.301-1.328.301z"/>
        <path fill="#F5F9FA" d="M15.28 13.88h-1.237v-1.3a.702.702 0 0 0-.15-.452.47.47 0 0 0-.384-.188.426.426 0 0 0-.368.188.76.76 0 0 0-.134.452v1.3h-1.085a.518.518 0 0 0-.401.188.658.658 0 0 0-.167.451c0 .176.055.308.167.396a.628.628 0 0 0 .4.132h1.086v1.336a.76.76 0 0 0 .134.452.426.426 0 0 0 .368.188.47.47 0 0 0 .384-.188c.1-.126.15-.276.15-.452v-1.336h1.236v.037c.156 0 .29-.05.401-.15a.53.53 0 0 0 .167-.415.657.657 0 0 0-.167-.451.518.518 0 0 0-.4-.189z"/>
    </g>
</svg>
