<?xml version="1.0" encoding="UTF-8"?>
<svg width="60px" height="56px" viewBox="0 0 60 56" version="1.1" xmlns="http://www.w3.org/2000/svg" xmlns:xlink="http://www.w3.org/1999/xlink">
    <!-- Generator: Sketch 44.1 (41455) - http://www.bohemiancoding.com/sketch -->
    <title>180x180</title>
    <desc>Created with Sketch.</desc>
    <defs></defs>
    <g id="Symbols" stroke="none" stroke-width="1" fill="none" fill-rule="evenodd">
        <g id="180x180">
            <g transform="translate(5.000000, 3.000000)">
                <path d="M24.8085361,2.63777509 C25.9191946,2.63777509 26.871846,3.30693744 27.2899065,4.26344789 C27.3317126,4.35890145 27.4245418,4.41123633 27.5177002,4.41123633 C27.5841948,4.41123633 27.6510187,4.38424602 27.6990792,4.32697388 C28.208323,3.71870433 28.9684032,3.35466421 29.7752271,3.35466421 C30.0069709,3.35466421 30.2426649,3.38494603 30.4770422,3.44748457 C31.5518199,3.73549099 32.2993912,4.63077951 32.4541065,5.66529856 C32.4725407,5.78905904 32.5828165,5.86937168 32.6970425,5.86937168 C32.7434571,5.86937168 32.7908592,5.85587653 32.8329944,5.82658216 C33.290886,5.50566072 33.8373273,5.33417347 34.3933149,5.33417347 C34.8518648,5.33417347 35.3166691,5.45102179 35.7429592,5.69689698 C36.7064736,6.25316081 37.1969541,7.31137868 37.0784487,8.35050583 C37.0616605,8.49730682 37.184116,8.61876324 37.3217139,8.61876324 C37.3483776,8.61876324 37.3756996,8.61415514 37.4026925,8.60428063 C37.7029061,8.49500277 38.0185912,8.44003469 38.3339471,8.44003469 C39.0265451,8.44003469 39.7184846,8.70368399 40.246821,9.2322992 C41.0335649,10.0189682 41.2333781,11.1680315 40.8502108,12.1409995 C40.7879955,12.2986624 40.9111094,12.4711371 41.0763585,12.4711371 C41.0836005,12.4711371 41.0905133,12.4708079 41.0974261,12.4701496 C41.1767589,12.4632375 41.2557624,12.4596168 41.3350952,12.4596168 C42.2709583,12.4596168 43.1808161,12.9437968 43.6824887,13.8127533 C44.2388055,14.7761759 44.1341258,15.9377469 43.5119727,16.7783965 C43.4072929,16.9202602 43.4922218,17.1299289 43.6660296,17.1605399 C44.6713501,17.3372935 45.5334765,18.0752483 45.8152559,19.1262248 C46.1032897,20.2009002 45.7016883,21.2959829 44.8830138,21.947042 C44.7450867,22.056649 44.772738,22.2811294 44.9327202,22.3558465 C45.8580495,22.7867041 46.4999535,23.7228073 46.4999535,24.8106487 C46.4999535,25.9215306 45.8310566,26.8737621 44.8744551,27.2917828 C44.7105227,27.3635376 44.6736543,27.5860431 44.8105938,27.7009165 C45.5937167,28.3565837 45.9719463,29.4273093 45.6901669,30.478615 C45.4021331,31.5532904 44.5067593,32.3007904 43.4721417,32.455491 C43.2976755,32.4814939 43.209784,32.689846 43.3108428,32.8343429 C43.8967859,33.6700552 43.9846774,34.8016736 43.4405403,35.7440306 C42.9388676,36.612658 42.029339,37.0968379 41.0934759,37.0968379 C40.9914296,37.0968379 40.888725,37.0909132 40.7866787,37.0793929 C40.7777908,37.0784055 40.7685737,37.0777472 40.760015,37.0777472 C40.5977285,37.0777472 40.4756022,37.2462721 40.5328798,37.4036059 C40.8824706,38.3624204 40.6744278,39.4782395 39.9048014,40.2474635 C39.376465,40.7760787 38.6845254,41.0397281 37.9922567,41.0397281 C37.653858,41.0397281 37.3154594,40.9765312 36.9958242,40.8507958 C36.9675145,40.8396047 36.9385466,40.8343383 36.910237,40.8343383 C36.7752725,40.8343383 36.6538045,40.9528324 36.6666426,41.0983168 C36.75618,42.1147326 36.2663579,43.1387188 35.3239111,43.6828041 C34.8979502,43.9286793 34.4331459,44.0455276 33.974596,44.0455276 C33.3958949,44.0455276 32.8270692,43.8595577 32.3579855,43.5126334 C32.3151919,43.481035 32.266473,43.4665524 32.2184125,43.4665524 C32.1064908,43.4665524 31.9972025,43.5448902 31.9758057,43.6663466 C31.7990352,44.6715713 31.0610102,45.5339448 30.0099336,45.8153682 C29.7752271,45.8782359 29.5398623,45.9081885 29.3081185,45.9081885 C28.4782519,45.9081885 27.6980916,45.5230828 27.1888478,44.8832148 C27.1411165,44.8233095 27.0716592,44.7946734 27.0022019,44.7946734 C26.9120061,44.7946734 26.8221396,44.8427294 26.7803335,44.9329165 C26.3491057,45.8581577 25.4129134,46.5000006 24.3249684,46.5000006 C23.2139807,46.5000006 22.2616586,45.8311674 21.843598,44.8746569 C21.8017919,44.7792034 21.7089628,44.7268685 21.6158044,44.7268685 C21.5493097,44.7268685 21.4824859,44.7535297 21.4344254,44.8108018 C20.9251815,45.4190714 20.1651013,45.7831115 19.3582774,45.7831115 C19.1265336,45.7831115 18.8908396,45.7531588 18.6564624,45.6902911 C17.5816846,45.4022847 16.8341134,44.5069962 16.6793981,43.4728063 C16.6609639,43.3487167 16.5506881,43.268404 16.4364621,43.268404 C16.3900475,43.268404 16.3426453,43.2818992 16.3005101,43.3115227 C15.8426186,43.6324441 15.2961772,43.8039314 14.7401896,43.8039314 C14.2816397,43.8039314 13.8168354,43.687083 13.3905453,43.4408787 C12.427031,42.8846149 11.9368796,41.826397 12.0550558,40.7872699 C12.0718441,40.6404689 11.9493885,40.5193416 11.8117907,40.5193416 C11.785127,40.5193416 11.7578049,40.5236205 11.730812,40.5334951 C11.4305984,40.6431021 11.1149134,40.697741 10.7995574,40.697741 C10.1069595,40.697741 9.41501989,40.4340917 8.88668353,39.9058056 C8.09993965,39.1188075 7.90012646,37.9697442 8.28329377,36.9967762 C8.34550908,36.8394424 8.22239519,36.6666386 8.05714605,36.6666386 C8.04990406,36.6666386 8.04299125,36.6669677 8.03607844,36.667626 C7.95674569,36.6745382 7.87774212,36.6781589 7.79840937,36.6781589 C6.86254626,36.6781589 5.95268849,36.1939789 5.45101583,35.3250224 C4.89469903,34.3615998 4.99937876,33.2000288 5.62153186,32.3593792 C5.72621159,32.2175154 5.64128275,32.0078468 5.4674749,31.9772358 C4.46215449,31.8004821 3.60002804,31.0625274 3.31824865,30.0115509 C3.0302148,28.9368755 3.43181628,27.8417928 4.25049076,27.1910629 C4.38841782,27.0811267 4.36076658,26.8566463 4.20078435,26.7822583 C3.27545505,26.3514007 2.63355105,25.4152976 2.63355105,24.327127 C2.63355105,23.2165743 3.30244793,22.2640136 4.25937866,21.8459929 C4.42298189,21.7742381 4.45985022,21.5517326 4.3229107,21.4371883 C3.53978782,20.7815212 3.16155824,19.7104664 3.44333763,18.6591607 C3.73137148,17.5844853 4.62674526,16.8369852 5.66136283,16.6822847 C5.83582904,16.6562818 5.92372051,16.4479297 5.82266178,16.3034328 C5.23671865,15.4677204 5.14882717,14.3361021 5.69296426,13.3940742 C6.19463692,12.5251177 7.1041655,12.0412669 8.04002861,12.0412669 C8.14207489,12.0412669 8.24445035,12.0468625 8.34682581,12.0587119 C8.35571371,12.0596994 8.36493079,12.0600285 8.37381869,12.0600285 C8.53577601,12.0600285 8.65790236,11.8915036 8.60062477,11.734499 C8.25103398,10.7753553 8.45907671,9.65953615 9.22837396,8.89031215 C9.75703951,8.36169694 10.4489791,8.09837679 11.1412479,8.09837679 C11.4796465,8.09837679 11.8180451,8.16124447 12.1376804,8.287309 C12.16599,8.2985001 12.194958,8.30343736 12.2232676,8.30343736 C12.358232,8.30343736 12.4797,8.18494329 12.4668619,8.03978805 C12.3773245,7.02304311 12.8671467,5.99905686 13.8095934,5.45497159 C14.2355543,5.2090964 14.7003587,5.09224808 15.1589085,5.09224808 C15.7376097,5.09224808 16.3067646,5.27821794 16.7755191,5.62547139 C16.8183127,5.65674066 16.8670315,5.67122327 16.915092,5.67122327 C17.0270138,5.67122327 17.136302,5.59321467 17.1576988,5.4714291 C17.3344693,4.46620441 18.0724943,3.60416006 19.123571,3.32240749 C19.3582774,3.25953981 19.5936422,3.22958714 19.825386,3.22958714 C20.6552527,3.22958714 21.4354129,3.61469287 21.9446567,4.25456084 C21.9923881,4.31479532 22.0618454,4.34343139 22.1313027,4.34343139 C22.2214984,4.34343139 22.311365,4.29504631 22.3535002,4.20485916 C22.7843988,3.27961797 23.7205911,2.63777509 24.8085361,2.63777509" id="Fill-1-Copy" fill="#FFFFFF"></path>
                <g id="logo" fill="#2F2F2F">
                    <path d="M34.8283283,35.3891409 C32.3446536,35.3891409 32.5395291,31.883033 34.8283283,31.883033 C37.1171275,31.883033 37.312003,35.3891409 34.8283283,35.3891409 M14.3051762,35.3891409 C11.8215015,35.3891409 12.016377,31.883033 14.3051762,31.883033 C16.5939754,31.883033 16.7888509,35.3891409 14.3051762,35.3891409 M42.3320215,22.435435 L41.4906334,22.435435 C39.9816653,22.435435 38.6856776,21.5335635 38.1056597,20.2409907 C37.5256418,21.5335635 36.2296541,22.435435 34.7210151,22.435435 C33.212047,22.435435 31.9163884,21.5335635 31.3363706,20.2409907 C30.7563527,21.5335635 29.460365,22.435435 27.9513968,22.435435 C26.4427578,22.435435 25.1467701,21.5335635 24.5667523,20.2409907 C23.9867344,21.5335635 22.6907467,22.435435 21.1821077,22.435435 C19.6731395,22.435435 18.377481,21.5335635 17.797134,20.2409907 C17.2171161,21.5335635 15.9214576,22.435435 14.4124894,22.435435 C12.9035212,22.435435 11.6078627,21.5335635 11.0278448,20.2409907 C10.447827,21.5335635 9.15183926,22.435435 7.64287109,22.435435 L6.81102935,22.435435 C5.54894733,23.7931796 6.34951683,24.940268 9.46620762,24.940268 L9.46620762,31.9126565 C9.46620762,38.4653786 17.0123652,41.7417396 24.5585227,41.7417396 C32.1046803,41.7417396 39.6508378,38.4653786 39.6508378,31.9126565 L39.6508378,24.940268 C42.7701621,24.940268 43.584228,23.7931796 42.3320215,22.435435" id="Fill-4"></path>
                    <path d="M24.8085361,0.00457355397 C23.7034737,0.00457355397 22.6458134,0.350839556 21.7675571,0.959767413 C21.1575837,0.722120974 20.5011957,0.5963856 19.825386,0.5963856 C19.3595941,0.5963856 18.8941314,0.657936686 18.441836,0.779063957 C17.3729836,1.06542462 16.4397539,1.67501078 15.7484727,2.49229071 C15.5529388,2.47023765 15.3560883,2.45904654 15.1589085,2.45904654 C14.2256789,2.45904654 13.3036414,2.70656748 12.4928673,3.17461906 C11.534949,3.72759138 10.7916571,4.55737902 10.3354115,5.52508058 C9.21553588,5.69360548 8.18223504,6.21267533 7.36652319,7.02830951 C6.58307113,7.81135782 6.07975256,8.806708 5.890144,9.86097607 C4.86507269,10.312241 3.98780389,11.0804775 3.41239457,12.0774735 C2.8590404,13.0356297 2.63025924,14.1261043 2.71946743,15.1925509 C1.84911145,15.8893618 1.20062382,16.8554177 0.899751895,17.9774907 C0.613363958,19.0465705 0.674591724,20.1590981 1.03669141,21.1662977 C0.376682433,22.0645486 9.8754461e-05,23.1658851 9.8754461e-05,24.327127 C9.8754461e-05,25.43373 0.347056094,26.492277 0.957687846,27.3714372 C0.552465374,28.409906 0.473790986,29.5708187 0.774333729,30.6932209 C1.06105085,31.7619716 1.67036587,32.6944541 2.48739445,33.3856695 C2.36493892,34.493589 2.58944072,35.635411 3.17044614,36.6416232 C3.72215439,37.5974753 4.55136268,38.3433297 5.52211904,38.8005193 C5.69098917,39.9018558 6.20319564,40.9465785 7.02450357,41.7678083 C7.80696809,42.5498691 8.78924579,43.0593936 9.85678152,43.248655 C10.3051268,44.2670457 11.0694863,45.1412686 12.0738192,45.7212312 C12.8849225,46.189612 13.80696,46.4371329 14.7401896,46.4371329 C14.8919423,46.4371329 15.0427075,46.4305499 15.192485,46.4180422 C15.8890332,47.2863404 16.8541934,47.9334497 17.9747274,48.2336347 C18.4270228,48.3547619 18.8924855,48.416313 19.3582774,48.416313 C19.9837223,48.416313 20.5953416,48.3073643 21.169105,48.100658 C22.0664539,48.7579709 23.1659202,49.1332021 24.3249684,49.1332021 C25.4300309,49.1332021 26.4876911,48.7869361 27.3659475,48.1780083 C27.9759209,48.4159839 28.632638,48.5413901 29.3081185,48.5413901 C29.7739104,48.5413901 30.2393731,48.4801682 30.6916685,48.3587117 C31.760521,48.0723511 32.6937506,47.4627649 33.3847027,46.645485 C33.5805657,46.667538 33.7774163,46.6787291 33.974596,46.6787291 C34.9078257,46.6787291 35.8298631,46.4312082 36.6406373,45.9631566 C37.5988847,45.4101843 38.3418475,44.5803967 38.7980931,43.6126951 C39.9182978,43.4441702 40.9512695,42.9251004 41.7669814,42.1094662 C42.5501042,41.3264179 43.0534228,40.3310677 43.2433605,39.2767996 C44.2684318,38.8258639 45.1457006,38.0576273 45.72111,37.0606314 C46.2744641,36.1024752 46.5032453,35.0120006 46.4140371,33.945554 C47.2843931,33.248743 47.9328807,32.2826872 48.2337526,31.160285 C48.5201406,30.0912052 48.4589128,28.9786775 48.0968131,27.9718071 C48.7568221,27.0732271 49.1334058,25.9722197 49.1334058,24.8106487 C49.1334058,23.7043749 48.7861193,22.6454987 48.1758167,21.7666677 C48.5810392,20.7281988 48.6597136,19.5669569 48.3588416,18.4445548 C48.0724537,17.3758041 47.4631387,16.4433216 46.6461101,15.7521062 C46.7685656,14.6441867 46.5440638,13.5023646 45.9630584,12.4961525 C45.411021,11.5403003 44.5821419,10.7947752 43.6113855,10.3372564 C43.4425154,9.23591985 42.9303089,8.19152629 42.109001,7.37029656 C41.3265365,6.58790655 40.3442587,6.07838206 39.276723,5.88944985 C38.828707,4.87105915 38.0643474,3.99650709 37.0596854,3.41654445 C36.2489112,2.94849288 35.3268738,2.70097193 34.3936441,2.70097193 C34.2418914,2.70097193 34.0907971,2.70722578 33.9410195,2.71973349 C33.2444714,1.85176443 32.2793111,1.20432601 31.1587771,0.90414103 C30.7064817,0.783013759 30.241019,0.721462673 29.7755563,0.721462673 C29.1497822,0.721462673 28.5381629,0.830411387 27.9643995,1.03744686 C27.0670506,0.379804773 25.9675843,0.00457355397 24.8085361,0.00457355397 M24.8085361,2.63777509 C25.9191946,2.63777509 26.871846,3.30693744 27.2899065,4.26344789 C27.3317126,4.35890145 27.4245418,4.41123633 27.5177002,4.41123633 C27.5841948,4.41123633 27.6510187,4.38424602 27.6990792,4.32697388 C28.208323,3.71870433 28.9684032,3.35466421 29.7752271,3.35466421 C30.0069709,3.35466421 30.2426649,3.38494603 30.4770422,3.44748457 C31.5518199,3.73549099 32.2993912,4.63077951 32.4541065,5.66529856 C32.4725407,5.78905904 32.5828165,5.86937168 32.6970425,5.86937168 C32.7434571,5.86937168 32.7908592,5.85587653 32.8329944,5.82658216 C33.290886,5.50566072 33.8373273,5.33417347 34.3933149,5.33417347 C34.8518648,5.33417347 35.3166691,5.45102179 35.7429592,5.69689698 C36.7064736,6.25316081 37.1969541,7.31137868 37.0784487,8.35050583 C37.0616605,8.49730682 37.184116,8.61876324 37.3217139,8.61876324 C37.3483776,8.61876324 37.3756996,8.61415514 37.4026925,8.60428063 C37.7029061,8.49500277 38.0185912,8.44003469 38.3339471,8.44003469 C39.0265451,8.44003469 39.7184846,8.70368399 40.246821,9.2322992 C41.0335649,10.0189682 41.2333781,11.1680315 40.8502108,12.1409995 C40.7879955,12.2986624 40.9111094,12.4711371 41.0763585,12.4711371 C41.0836005,12.4711371 41.0905133,12.4708079 41.0974261,12.4701496 C41.1767589,12.4632375 41.2557624,12.4596168 41.3350952,12.4596168 C42.2709583,12.4596168 43.1808161,12.9437968 43.6824887,13.8127533 C44.2388055,14.7761759 44.1341258,15.9377469 43.5119727,16.7783965 C43.4072929,16.9202602 43.4922218,17.1299289 43.6660296,17.1605399 C44.6713501,17.3372935 45.5334765,18.0752483 45.8152559,19.1262248 C46.1032897,20.2009002 45.7016883,21.2959829 44.8830138,21.947042 C44.7450867,22.056649 44.772738,22.2811294 44.9327202,22.3558465 C45.8580495,22.7867041 46.4999535,23.7228073 46.4999535,24.8106487 C46.4999535,25.9215306 45.8310566,26.8737621 44.8744551,27.2917828 C44.7105227,27.3635376 44.6736543,27.5860431 44.8105938,27.7009165 C45.5937167,28.3565837 45.9719463,29.4273093 45.6901669,30.478615 C45.4021331,31.5532904 44.5067593,32.3007904 43.4721417,32.455491 C43.2976755,32.4814939 43.209784,32.689846 43.3108428,32.8343429 C43.8967859,33.6700552 43.9846774,34.8016736 43.4405403,35.7440306 C42.9388676,36.612658 42.029339,37.0968379 41.0934759,37.0968379 C40.9914296,37.0968379 40.888725,37.0909132 40.7866787,37.0793929 C40.7777908,37.0784055 40.7685737,37.0777472 40.760015,37.0777472 C40.5977285,37.0777472 40.4756022,37.2462721 40.5328798,37.4036059 C40.8824706,38.3624204 40.6744278,39.4782395 39.9048014,40.2474635 C39.376465,40.7760787 38.6845254,41.0397281 37.9922567,41.0397281 C37.653858,41.0397281 37.3154594,40.9765312 36.9958242,40.8507958 C36.9675145,40.8396047 36.9385466,40.8343383 36.910237,40.8343383 C36.7752725,40.8343383 36.6538045,40.9528324 36.6666426,41.0983168 C36.75618,42.1147326 36.2663579,43.1387188 35.3239111,43.6828041 C34.8979502,43.9286793 34.4331459,44.0455276 33.974596,44.0455276 C33.3958949,44.0455276 32.8270692,43.8595577 32.3579855,43.5126334 C32.3151919,43.481035 32.266473,43.4665524 32.2184125,43.4665524 C32.1064908,43.4665524 31.9972025,43.5448902 31.9758057,43.6663466 C31.7990352,44.6715713 31.0610102,45.5339448 30.0099336,45.8153682 C29.7752271,45.8782359 29.5398623,45.9081885 29.3081185,45.9081885 C28.4782519,45.9081885 27.6980916,45.5230828 27.1888478,44.8832148 C27.1411165,44.8233095 27.0716592,44.7946734 27.0022019,44.7946734 C26.9120061,44.7946734 26.8221396,44.8427294 26.7803335,44.9329165 C26.3491057,45.8581577 25.4129134,46.5000006 24.3249684,46.5000006 C23.2139807,46.5000006 22.2616586,45.8311674 21.843598,44.8746569 C21.8017919,44.7792034 21.7089628,44.7268685 21.6158044,44.7268685 C21.5493097,44.7268685 21.4824859,44.7535297 21.4344254,44.8108018 C20.9251815,45.4190714 20.1651013,45.7831115 19.3582774,45.7831115 C19.1265336,45.7831115 18.8908396,45.7531588 18.6564624,45.6902911 C17.5816846,45.4022847 16.8341134,44.5069962 16.6793981,43.4728063 C16.6609639,43.3487167 16.5506881,43.268404 16.4364621,43.268404 C16.3900475,43.268404 16.3426453,43.2818992 16.3005101,43.3115227 C15.8426186,43.6324441 15.2961772,43.8039314 14.7401896,43.8039314 C14.2816397,43.8039314 13.8168354,43.687083 13.3905453,43.4408787 C12.427031,42.8846149 11.9368796,41.826397 12.0550558,40.7872699 C12.0718441,40.6404689 11.9493885,40.5193416 11.8117907,40.5193416 C11.785127,40.5193416 11.7578049,40.5236205 11.730812,40.5334951 C11.4305984,40.6431021 11.1149134,40.697741 10.7995574,40.697741 C10.1069595,40.697741 9.41501989,40.4340917 8.88668353,39.9058056 C8.09993965,39.1188075 7.90012646,37.9697442 8.28329377,36.9967762 C8.34550908,36.8394424 8.22239519,36.6666386 8.05714605,36.6666386 C8.04990406,36.6666386 8.04299125,36.6669677 8.03607844,36.667626 C7.95674569,36.6745382 7.87774212,36.6781589 7.79840937,36.6781589 C6.86254626,36.6781589 5.95268849,36.1939789 5.45101583,35.3250224 C4.89469903,34.3615998 4.99937876,33.2000288 5.62153186,32.3593792 C5.72621159,32.2175154 5.64128275,32.0078468 5.4674749,31.9772358 C4.46215449,31.8004821 3.60002804,31.0625274 3.31824865,30.0115509 C3.0302148,28.9368755 3.43181628,27.8417928 4.25049076,27.1910629 C4.38841782,27.0811267 4.36076658,26.8566463 4.20078435,26.7822583 C3.27545505,26.3514007 2.63355105,25.4152976 2.63355105,24.327127 C2.63355105,23.2165743 3.30244793,22.2640136 4.25937866,21.8459929 C4.42298189,21.7742381 4.45985022,21.5517326 4.3229107,21.4371883 C3.53978782,20.7815212 3.16155824,19.7104664 3.44333763,18.6591607 C3.73137148,17.5844853 4.62674526,16.8369852 5.66136283,16.6822847 C5.83582904,16.6562818 5.92372051,16.4479297 5.82266178,16.3034328 C5.23671865,15.4677204 5.14882717,14.3361021 5.69296426,13.3940742 C6.19463692,12.5251177 7.1041655,12.0412669 8.04002861,12.0412669 C8.14207489,12.0412669 8.24445035,12.0468625 8.34682581,12.0587119 C8.35571371,12.0596994 8.36493079,12.0600285 8.37381869,12.0600285 C8.53577601,12.0600285 8.65790236,11.8915036 8.60062477,11.734499 C8.25103398,10.7753553 8.45907671,9.65953615 9.22837396,8.89031215 C9.75703951,8.36169694 10.4489791,8.09837679 11.1412479,8.09837679 C11.4796465,8.09837679 11.8180451,8.16124447 12.1376804,8.287309 C12.16599,8.2985001 12.194958,8.30343736 12.2232676,8.30343736 C12.358232,8.30343736 12.4797,8.18494329 12.4668619,8.03978805 C12.3773245,7.02304311 12.8671467,5.99905686 13.8095934,5.45497159 C14.2355543,5.2090964 14.7003587,5.09224808 15.1589085,5.09224808 C15.7376097,5.09224808 16.3067646,5.27821794 16.7755191,5.62547139 C16.8183127,5.65674066 16.8670315,5.67122327 16.915092,5.67122327 C17.0270138,5.67122327 17.136302,5.59321467 17.1576988,5.4714291 C17.3344693,4.46620441 18.0724943,3.60416006 19.123571,3.32240749 C19.3582774,3.25953981 19.5936422,3.22958714 19.825386,3.22958714 C20.6552527,3.22958714 21.4354129,3.61469287 21.9446567,4.25456084 C21.9923881,4.31479532 22.0618454,4.34343139 22.1313027,4.34343139 C22.2214984,4.34343139 22.311365,4.29504631 22.3535002,4.20485916 C22.7843988,3.27961797 23.7205911,2.63777509 24.8085361,2.63777509" id="Fill-1"></path>
                </g>
            </g>
        </g>
    </g>
</svg>