<svg xmlns="http://www.w3.org/2000/svg" width="64" height="64" viewBox="0 0 64 64">
    <g fill="none" fill-rule="evenodd">
        <path d="M0 0h64v64H0z"/>
        <path fill="#86DBA2" d="M59.728 36.67c-3.488 3.112-5.098 7.003-4.832 11.672.267 4.67-1.931 6.872-6.597 6.605-4.665-.268-8.552 1.343-11.663 4.835-3.109 3.49-6.22 3.49-9.328 0-3.111-3.492-6.998-5.103-11.664-4.835-4.665.267-6.863-1.935-6.597-6.605.267-4.669-1.343-8.56-4.83-11.673-3.487-3.113-3.487-6.225 0-9.338 3.487-3.113 5.097-7.004 4.83-11.673-.266-4.67 1.932-6.872 6.597-6.605 4.666.268 8.553-1.343 11.664-4.835 3.108-3.49 6.22-3.49 9.328 0C39.747 7.71 43.634 9.32 48.3 9.053c4.666-.267 6.864 1.935 6.597 6.605-.266 4.669 1.344 8.56 4.832 11.673 3.488 3.113 3.488 6.225 0 9.338"/>
        <path fill="#443D4E" fill-rule="nonzero" d="M18.786 30.662L17.6 31.938l13.808 12.274L46.4 21.872 45.2 20.8 30.23 35.737z"/>
    </g>
</svg>
